<svg width="120" height="120" viewBox="0 0 120 120" fill="none" xmlns="http://www.w3.org/2000/svg">
<circle cx="60" cy="60" r="60" fill="#F4F5F7"/>
<g filter="url(#filter0_d)">
<rect x="31" y="31" width="58" height="58" rx="4" fill="white"/>
<path d="M49.9995 66H53.9995C53.9995 68.16 56.7395 70 59.9995 70C63.2595 70 65.9995 68.16 65.9995 66C65.9995 63.8 63.9195 63 59.5195 61.94C55.2795 60.88 49.9995 59.56 49.9995 54C49.9995 50.42 52.9395 47.38 56.9995 46.36V42H62.9995V46.36C67.0595 47.38 69.9995 50.42 69.9995 54H65.9995C65.9995 51.84 63.2595 50 59.9995 50C56.7395 50 53.9995 51.84 53.9995 54C53.9995 56.2 56.0795 57 60.4795 58.06C64.7195 59.12 69.9995 60.44 69.9995 66C69.9995 69.58 67.0595 72.62 62.9995 73.64V78H56.9995V73.64C52.9395 72.62 49.9995 69.58 49.9995 66Z" fill="#BBBEC4"/>
</g>
<defs>
<filter id="filter0_d" x="19" y="23" width="82" height="82" filterUnits="userSpaceOnUse" color-interpolation-filters="sRGB">
<feFlood flood-opacity="0" result="BackgroundImageFix"/>
<feColorMatrix in="SourceAlpha" type="matrix" values="0 0 0 0 0 0 0 0 0 0 0 0 0 0 0 0 0 0 127 0"/>
<feOffset dy="4"/>
<feGaussianBlur stdDeviation="6"/>
<feColorMatrix type="matrix" values="0 0 0 0 0 0 0 0 0 0 0 0 0 0 0 0 0 0 0.16 0"/>
<feBlend mode="normal" in2="BackgroundImageFix" result="effect1_dropShadow"/>
<feBlend mode="normal" in="SourceGraphic" in2="effect1_dropShadow" result="shape"/>
</filter>
</defs>
</svg>
